# xmcd CD database file
#
# Track frame offsets:
#	150
#	13390
#	23253
#	35376
#	47572
#	61227
#	71172
#	85542
#	97798
#	111227
#	122213
#	134692
#	144075
#	154599
#	165339
#	177993
#	187833
#	195799
#	203144
#	215929
#	227115
#	237863
#	245704
#	256432
#	267182
#	276160
#	288543
#
# Disc length: 4010 seconds
#
# Revision: 0
# Processed by: cddbd v1.5.2PL0 Copyright (c) Steve Scherf et al.
# Submitted via: CDex 1.51
#
DISCID=7a0fa81b
DTITLE=Luke Gordon - Dark Hollow
DYEAR=1900
DGENRE=Country
TTITLE0=Dark Hollow
TTITLE1=You May Be Someone (Where You Come From)
TTITLE2=Eight Years In Atlanta
TTITLE3=When It's Time (For The Whippoorwills To Sing)
TTITLE4=Thirteen Steps Away
TTITLE5=Lonely Heartache
TTITLE6=Goin' Crazy
TTITLE7=Married Life
TTITLE8=Don't Say Goodbye If You Love Me
TTITLE9=Goin' Down The Road Feeling Bad
TTITLE10=I Believe I'm Entitled To You
TTITLE11=Is It Wrong
TTITLE12=Let The Kiss Bid Goodbye
TTITLE13=Swing Wide Your Gate Of Love
TTITLE14=On The Banks Of The Old Ponchartrain
TTITLE15=Christmas In Tennessee
TTITLE16=Racetrack Blues
TTITLE17=The Dark Years Ahead
TTITLE18=Fool That I Am
TTITLE19=Moustache On The Cabbage Head
TTITLE20=When You Cross Your Heart
TTITLE21=Why Do You Treat Me This Way
TTITLE22=Changing Company
TTITLE23=Pastures Green
TTITLE24=Big New Dance
TTITLE25=Just Doin' What's Right
TTITLE26=What Can You Do
EXTD=
EXTT0=
EXTT1=
EXTT2=
EXTT3=
EXTT4=
EXTT5=
EXTT6=
EXTT7=
EXTT8=
EXTT9=
EXTT10=
EXTT11=
EXTT12=
EXTT13=
EXTT14=
EXTT15=
EXTT16=
EXTT17=
EXTT18=
EXTT19=
EXTT20=
EXTT21=
EXTT22=
EXTT23=
EXTT24=
EXTT25=
EXTT26=
PLAYORDER=
